# xmcd CD database file
#
# Track frame offsets:
#	183
#	14408
#	28190
#	41368
#	56753
#	71453
#	84778
#	98608
#	111125
#	129203
#	144343
#	159390
#	180115
#	196210
#	212800
#	223105
#	234368
#	243198
#
# Disc length: 3410 seconds
#
# Revision: 0
# Processed by: cddbd v1.5.1PL0 Copyright (c) Steve Scherf et al.
# Submitted via: CDex 1.51
#
DISCID=e10d5012
DTITLE=Les Génies du Jazz - I 05 - 'Kid' Ory
DYEAR=1900
DGENRE=Jazz
TTITLE0=Perdido street Blues
TTITLE1=Gathemouth
TTITLE2=Too Tight
TTITLE3=Flat Foot
TTITLE4=Dead Man Blues
TTITLE5=New Wang Wang Blues
TTITLE6=Every Tub
TTITLE7=Get' em again Blues
TTITLE8=Mahogany Hall Stomp
TTITLE9=South
TTITLE10=Free as a Bird
TTITLE11=Do what Ory say
TTITLE12=Dippermouth Blues
TTITLE13=High Society
TTITLE14=Maryland, My Maryland
TTITLE15=Eh ! la bas
TTITLE16=My Gal Sal
TTITLE17=Down Home Rag
EXTD=
EXTT0=
EXTT1=
EXTT2=
EXTT3=
EXTT4=
EXTT5=
EXTT6=
EXTT7=
EXTT8=
EXTT9=
EXTT10=
EXTT11=
EXTT12=
EXTT13=
EXTT14=
EXTT15=
EXTT16=
EXTT17=
PLAYORDER=
